<?xml version="1.0" standalone="no"?>
<!DOCTYPE svg PUBLIC "-//W3C//DTD SVG 20010904//EN"
 "http://www.w3.org/TR/2001/REC-SVG-20010904/DTD/svg10.dtd">
<svg version="1.0" xmlns="http://www.w3.org/2000/svg"
 width="181.000000pt" height="181.000000pt" viewBox="0 0 181.000000 181.000000"
 preserveAspectRatio="xMidYMid meet">
<metadata>
Created by potrace 1.14, written by Peter Selinger 2001-2017
</metadata>
<g transform="translate(0.000000,181.000000) scale(0.100000,-0.100000)"
fill="#000000" stroke="none">
<path d="M776 1772 c-4 -3 -42 -12 -71 -16 -11 -2 -20 -4 -20 -5 0 -4 -38 -12
-57 -14 -10 -1 -18 -5 -18 -10 0 -4 -4 -5 -10 -2 -5 3 -10 1 -10 -5 0 -7 -7
-10 -15 -6 -8 3 -15 1 -15 -5 0 -6 -4 -7 -10 -4 -5 3 -10 2 -10 -4 0 -5 -16
-15 -35 -21 -19 -6 -33 -15 -31 -19 3 -4 -5 -8 -17 -8 -11 -1 -25 -9 -29 -18
-5 -8 -13 -15 -18 -15 -12 0 -41 -23 -102 -81 -26 -25 -50 -44 -53 -41 -5 5
-9 -14 -6 -30 0 -5 -6 -8 -14 -8 -8 0 -15 -5 -15 -10 0 -6 -11 -23 -25 -38
-14 -15 -25 -32 -25 -39 0 -6 -3 -13 -7 -15 -11 -4 -56 -88 -48 -88 4 0 -1 -7
-10 -16 -9 -9 -14 -23 -11 -30 3 -8 1 -14 -5 -14 -6 0 -9 -7 -5 -15 3 -8 1
-15 -5 -15 -6 0 -7 -4 -4 -10 3 -5 1 -10 -5 -10 -7 0 -10 -6 -7 -14 3 -8 3
-17 -1 -20 -3 -4 -7 -12 -8 -19 -1 -7 -6 -21 -10 -31 -5 -14 -4 -17 5 -11 7 4
5 -5 -5 -21 -12 -17 -14 -25 -6 -20 11 7 12 4 4 -10 -10 -21 -14 -216 -3 -210
3 2 6 -10 7 -27 1 -44 8 -91 14 -97 6 -6 30 -88 32 -107 1 -7 5 -13 9 -13 7 0
33 -60 30 -72 0 -5 3 -8 8 -8 5 0 14 -13 21 -30 7 -16 16 -30 21 -30 5 0 9 -4
9 -10 0 -10 9 -22 62 -83 15 -18 28 -35 28 -39 0 -5 6 -8 13 -8 7 0 18 -9 25
-20 7 -12 18 -18 24 -14 7 4 8 3 4 -5 -4 -6 0 -14 10 -18 17 -6 42 -24 69 -50
7 -7 15 -9 19 -6 3 4 6 1 6 -6 0 -7 4 -10 9 -7 5 4 11 3 13 -1 8 -20 146 -78
210 -90 18 -3 38 -9 43 -12 11 -8 71 -14 142 -15 24 -1 43 -5 43 -9 0 -5 5 -5
12 -1 7 4 28 8 48 9 19 0 41 4 48 8 7 5 12 3 12 -5 0 -9 3 -10 8 -2 4 6 15 10
24 8 10 -1 20 2 24 7 3 5 10 7 15 4 5 -4 15 -3 22 2 6 4 14 8 17 9 21 4 67 18
75 23 6 3 13 6 18 7 4 1 8 2 10 4 1 1 11 3 21 5 11 2 23 11 28 20 5 8 13 13
19 10 5 -4 16 0 24 7 32 29 43 37 47 33 2 -3 19 9 36 25 18 16 32 26 32 22 0
-4 11 5 24 20 12 15 25 26 27 24 2 -1 12 6 22 16 9 10 15 18 12 18 -3 0 9 16
27 36 65 71 63 68 110 153 11 20 24 41 28 46 5 6 11 27 15 48 4 20 11 37 16
37 5 0 8 3 8 8 -1 4 0 9 1 12 7 19 23 100 24 123 0 9 3 17 6 17 4 0 6 17 4 38
-1 20 2 47 7 59 5 13 4 23 -2 25 -6 2 -6 15 0 36 5 18 6 30 2 27 -5 -2 -9 14
-10 38 -2 41 -7 87 -11 97 -1 3 -2 8 -1 13 0 4 -4 7 -10 7 -5 0 -8 4 -5 8 7
12 -15 82 -26 82 -5 0 -7 3 -4 8 2 4 -3 23 -11 42 -9 19 -15 38 -15 43 1 4 -3
7 -8 7 -6 0 -10 10 -10 22 0 12 -3 18 -6 15 -4 -4 -15 10 -26 29 -21 40 -21
40 -78 104 -22 25 -40 48 -40 52 0 5 -5 8 -10 8 -6 0 -21 9 -33 20 -64 58 -93
80 -104 80 -7 0 -13 5 -13 11 0 5 -5 7 -10 4 -6 -3 -13 1 -16 9 -3 9 -12 16
-18 16 -7 0 -35 11 -62 24 -49 23 -126 48 -151 49 -7 0 -13 3 -13 6 0 3 -12 7
-27 8 -16 1 -37 3 -48 6 -11 2 -26 -1 -34 -7 -11 -8 -13 -8 -7 1 5 10 -16 12
-94 10 -56 -1 -103 -3 -104 -5z"/>
</g>
</svg>
